<svg id="Layer_1" data-name="Layer 1" xmlns="http://www.w3.org/2000/svg" viewBox="0 0 1065 267"><defs><style>.cls-1{fill:#00d9ab;}.cls-2{fill:#fff;fill-rule:evenodd;}</style></defs><title>logos</title><rect class="cls-1" x="23.94" y="14.8" width="237.23" height="237.23"/><path class="cls-2" d="M213.77,103.14c9.76-22.81,12-45.39-5.87-59.41v-.32c0-.15,0-.3,0-.45s0-.07,0-.1a14.27,14.27,0,1,0-3.33,9c12.92,11.8,9.43,29.65,1.57,48l-3.29,7.68-5.32-2.28-32.12,80.14c-4.14,9.67-13.58,14.3-22.8,13.9-9.22.4-18.66-4.23-22.79-13.9L87.67,104.58l-5.4,2.31L79,99.18c-7.72-18-11.19-34.91.93-46.68a14.07,14.07,0,1,0-3.85-9.64,13.89,13.89,0,0,0,.17,1.71c-16.78,14-14.48,35.5-4.92,57.86l3.31,7.73-5.33,2.28,32.1,80.8a42.23,42.23,0,0,0,31.17,25.1V252.2h20V218.35a42.24,42.24,0,0,0,31.18-25.1l32.1-80.1-5.4-2.31Z"/><path class="cls-1" d="M392.93,132.15a19.73,19.73,0,0,1-4.73-3,31.46,31.46,0,0,1-4.18-6.5L368.48,93.94c-2.31-4.52-1.76-5.62,3.41-5.62h3.74c5.17,0,6.94,1.21,9.25,5.73l8.59,17.62a60.94,60.94,0,0,0,3.86,6.94,3.81,3.81,0,0,0,5.95,0,47.13,47.13,0,0,0,3.85-6.94L415.72,94c2.31-4.52,4.07-5.73,9.25-5.73h3.74c5.18,0,5.73,1.1,3.41,5.62l-15.53,28.74a31.46,31.46,0,0,1-4.18,6.5,16.84,16.84,0,0,1-4.63,3v21.36c0,5-1.21,6.39-6.39,6.39h-2.09c-5,0-6.39-1.43-6.39-6.39Z"/><path class="cls-1" d="M430.92,136.77V128c0-15.75,9.25-24.45,26.43-24.45,17.95,0,26.21,8,26.21,24.45v8.81c0,15.86-9,24.44-26.21,24.44C439.4,161.22,430.92,153.18,430.92,136.77ZM469.13,128c0-7.6-2.42-10.9-11.78-10.9s-12,3.3-12,10.9v8.81c0,7.6,2.64,10.9,12,10.9s11.78-3.3,11.78-10.9Z"/><path class="cls-1" d="M507.67,139c0,6.17,2.2,8.7,10.68,8.7s10.46-2.53,10.46-8.7V111c0-5,1.21-6.17,6.17-6.17h2.09c5,0,6.17,1.21,6.17,6.17v28c0,15-7.71,22.24-24.89,22.24-16.63,0-25.11-7.71-25.11-22.24V111c0-5,1.21-6.17,6.17-6.17h2.09c5,0,6.16,1.21,6.16,6.17Z"/><path class="cls-1" d="M552.38,151.31c0-5.17,1.32-6.5,6.06-5.17a54.28,54.28,0,0,0,15,1.76c6.5,0,8.48-.66,8.48-3.2,0-1.87-1.1-2.75-6.94-5.06l-10.24-4.3c-7.82-3.19-11.45-7.16-11.45-15.63,0-11,6.5-16.19,22.46-16.19a48,48,0,0,1,11.67,1.32c4.85,1.21,6.06,2.42,6.06,7.27v1.1c0,5-1.32,6.17-6.17,5a50.08,50.08,0,0,0-11.78-1.32c-6.28,0-8.15.88-8.15,3,0,1.65,1,2.31,4.51,3.74l11.45,4.52c8.7,3.41,12.66,7.71,12.66,16.52,0,11.45-6.94,16.63-23.67,16.63a56.54,56.54,0,0,1-13.88-1.43c-4.84-1.21-6.06-2.42-6.06-7.27Z"/><path class="cls-1" d="M605.56,127.63c0-16.41,10.46-24.12,26.21-24.12,17.51,0,26.32,8,26.32,24.12v8.81c0,15.86-8,24.78-23.12,24.78-6.94,0-12-2.09-15.09-6.27v20.81c0,5-1.21,6.17-6.16,6.17h-2c-5,0-6.16-1.21-6.16-6.17Zm38.1.33c0-7.82-2.2-10.9-11.78-10.9-9.36,0-12,3.3-12,10.9v8.81c0,7.6,2.64,10.9,12,10.9s11.78-3.3,11.78-10.9Z"/><path class="cls-1" d="M670,82.27a8.56,8.56,0,1,1,0,12.11A8.44,8.44,0,0,1,670,82.27ZM668.88,111c0-5,1.21-6.17,6.17-6.17h2c5,0,6.16,1.21,6.16,6.17v42.73c0,5-1.21,6.16-6.16,6.16h-2c-5,0-6.17-1.21-6.17-6.16Z"/><path class="cls-1" d="M691.23,112.44c0-4.4,1.1-5.73,5.4-6.61l4.51-1,1.32-8.7c.55-4.51,1.87-5.61,6.61-5.61h.66c4.73,0,5.73,1,5.73,5.73v8.59H728c5,0,6.17,1.21,6.17,6.17v1.21c0,5-1.21,6.16-6.17,6.16H715.45v21.8c0,5,2.31,7.38,6.94,7.38a39.37,39.37,0,0,0,7.71-.66c5-.88,6.06-.33,6.06,4.52v1.21c0,5-1.32,6.83-6.06,7.82a35.67,35.67,0,0,1-7.71.66c-14.21,0-21.26-7-21.26-21V118.38h-4.4c-4.4,0-5.5-1.1-5.5-5.5Z"/><path class="cls-1" d="M788.13,143.49c0,11.89-7.27,17.73-23.9,17.73s-23.9-5.84-23.9-17.4,7.49-17.18,22.36-17.18h11.12v-4.18c0-5.29-3.86-6.72-11.45-6.72a72.34,72.34,0,0,0-9.58.66c-4.85.77-6.17-.33-6.17-5.18v-.44c0-4.73,1.21-5.95,5.95-6.72a74.3,74.3,0,0,1,8.92-.55c17.29,0,26.65,5.29,26.65,18.94Zm-14.31-6.06H762.47c-5.18,0-7.82,2-7.82,6.06.44,5.29,4,5.84,9.36,5.73,5.61.11,9.25-.55,9.8-6.5Z"/><path class="cls-1" d="M797.81,89c0-5,1.21-6.16,6.17-6.16h2c5,0,6.17,1.21,6.17,6.16v51.09c0,5.62,1.43,7.38,4.84,7.38h.55c3,0,3.74.77,3.74,5.06v2.09c0,4.4-.77,5.62-3.74,6.17a23.42,23.42,0,0,1-3.3.22c-10,0-16.41-5.73-16.41-17.73Z"/><path class="cls-1" d="M829.64,146.68a8.56,8.56,0,1,1,0,12.11A8.44,8.44,0,0,1,829.64,146.68Z"/><path class="cls-1" d="M853.2,127.08c0-14.54,9.25-23.56,26.32-23.56a29.71,29.71,0,0,1,7.16.77c4.73,1,5.84,2.42,5.84,7.38v1.21c0,5-1.32,5.95-5.84,5a27.3,27.3,0,0,0-6.94-.77c-8.81,0-12.11,2.31-12.11,10.24v9.91c0,7.82,3.74,10.46,13.1,10.46a36.42,36.42,0,0,0,6.72-.66c4.84-.88,6.06.11,6.06,5.07v1.1c0,5-1.21,6.27-6.06,7.27a30.37,30.37,0,0,1-7.38.77c-18,0-26.87-7.82-26.87-23.56Z"/><path class="cls-1" d="M899.34,136.77V128c0-15.75,9.25-24.45,26.43-24.45,18,0,26.21,8,26.21,24.45v8.81c0,15.86-9,24.44-26.21,24.44C907.82,161.22,899.34,153.18,899.34,136.77ZM937.55,128c0-7.6-2.42-10.9-11.78-10.9s-12,3.3-12,10.9v8.81c0,7.6,2.64,10.9,12,10.9s11.78-3.3,11.78-10.9Z"/><path class="cls-1" d="M976.09,153.73c0,5-1.21,6.16-6.17,6.16h-2.09c-5,0-6.17-1.21-6.17-6.16v-28c0-14.43,8.15-22.24,23.56-22.24,7.6,0,13.11,2.31,16.3,7,3.41-4.73,8.81-7,16.19-7,16,0,23.34,7.27,23.34,22.24v28c0,5-1.21,6.16-6.16,6.16h-2.09c-5,0-6.16-1.21-6.16-6.16v-28c0-6.17-1.76-8.7-8.92-8.7-7.49,0-9.36,2.53-9.36,8.7v28c0,5-1.21,6.16-6.17,6.16h-1.65c-5,0-6.16-1.21-6.16-6.16v-28c0-6.17-1.76-8.7-9.14-8.7-7.16,0-9.14,2.53-9.14,8.7Z"/><rect class="cls-1" x="316.14" y="50.63" width="1" height="168.47"/></svg>